<?xml version="1.0" standalone="no"?>
<!DOCTYPE svg PUBLIC "-//W3C//DTD SVG 20010904//EN"
 "http://www.w3.org/TR/2001/REC-SVG-20010904/DTD/svg10.dtd">
<svg version="1.0" xmlns="http://www.w3.org/2000/svg"
 width="60px" height="60px" viewBox="0 0 1080.000000 1080.000000"
 preserveAspectRatio="xMidYMid meet">

<g transform="translate(0.000000,1080.000000) scale(0.100000,-0.100000)"
fill="#000000" stroke="none">
<path d="M7239 8073 c-49 -52 -75 -92 -92 -141 -8 -22 -35 -65 -61 -95 -25
-30 -46 -58 -46 -63 0 -5 -13 -18 -30 -29 -16 -11 -34 -32 -39 -46 -12 -35
-92 -137 -174 -223 -38 -39 -78 -88 -89 -110 -11 -21 -47 -66 -79 -100 -33
-33 -70 -77 -82 -96 -11 -19 -39 -57 -60 -84 -21 -27 -48 -68 -59 -90 -11 -23
-34 -56 -49 -74 -16 -18 -29 -37 -29 -43 0 -19 -77 -163 -125 -234 -26 -38
-72 -97 -104 -130 -77 -83 -135 -154 -143 -176 -4 -10 -26 -37 -50 -59 -23
-23 -51 -54 -63 -69 -28 -38 -237 -235 -310 -293 -33 -26 -94 -71 -135 -99
-41 -29 -105 -77 -142 -108 -103 -86 -125 -101 -142 -101 -25 0 -28 22 -11 63
8 20 15 53 15 72 0 20 5 46 12 58 14 26 28 323 33 757 3 162 9 345 15 405 13
142 14 863 1 936 -17 97 -31 138 -53 153 -26 19 -44 7 -65 -41 -12 -29 -11
-39 7 -90 19 -53 20 -73 14 -223 -4 -117 -3 -174 6 -195 14 -36 -5 -1085 -21
-1123 -5 -13 -9 -118 -9 -235 -1 -118 -6 -231 -12 -257 -6 -25 -12 -65 -13
-90 -2 -25 -6 -58 -10 -75 -3 -16 -8 -40 -11 -52 -11 -54 -50 -5 -79 97 -7 25
-23 70 -35 100 -12 30 -28 74 -35 96 -7 23 -25 66 -38 95 -14 30 -30 70 -35
89 -17 58 -51 143 -62 154 -5 5 -10 16 -10 24 0 15 -18 59 -51 127 -10 22 -19
45 -19 51 0 6 -13 37 -30 70 -16 32 -45 102 -63 154 -19 52 -56 144 -81 205
-25 60 -48 123 -52 139 -10 47 -92 166 -114 166 -37 0 -34 -41 10 -122 22 -42
47 -100 55 -130 7 -29 26 -77 40 -106 31 -63 115 -272 115 -288 0 -6 9 -23 20
-36 10 -14 23 -44 29 -66 5 -23 21 -62 36 -88 15 -25 31 -58 35 -72 5 -15 18
-52 30 -82 12 -30 28 -75 37 -100 8 -25 21 -59 29 -77 8 -17 14 -39 14 -48 0
-10 9 -32 19 -49 11 -17 29 -58 40 -91 11 -33 30 -85 42 -115 11 -30 26 -73
31 -95 6 -22 22 -70 35 -106 34 -90 24 -123 -50 -160 -36 -19 -53 -20 -236
-15 -108 3 -236 10 -286 15 -49 6 -131 14 -181 19 -51 4 -98 13 -106 20 -18
14 -42 16 -200 14 -119 -2 -128 -3 -128 -21 0 -11 5 -23 12 -27 16 -10 181
-33 240 -34 26 0 58 -4 73 -10 14 -5 58 -12 98 -14 39 -2 106 -14 147 -25 63
-18 99 -21 223 -20 81 1 150 -1 154 -5 18 -17 -30 -66 -128 -131 -58 -38 -142
-102 -185 -140 -43 -39 -104 -91 -134 -115 -74 -60 -294 -284 -332 -340 -17
-25 -57 -72 -88 -105 -32 -33 -67 -78 -78 -100 -12 -22 -35 -58 -51 -80 -16
-22 -55 -77 -85 -122 -31 -45 -60 -84 -66 -88 -5 -3 -26 -35 -45 -70 -37 -66
-40 -105 -8 -105 28 0 131 126 185 226 48 90 196 288 304 404 63 69 148 163
189 210 41 47 102 108 136 135 35 28 103 87 152 132 49 45 102 85 118 88 15 4
33 13 40 21 7 8 42 33 79 54 37 22 86 55 109 74 47 39 94 56 158 56 30 0 45
-5 51 -17 11 -21 -2 -152 -16 -180 -6 -10 -13 -57 -17 -103 -3 -47 -12 -101
-19 -120 -26 -67 -38 -126 -41 -190 -3 -74 -18 -159 -34 -189 -6 -11 -11 -35
-11 -53 0 -18 -5 -49 -11 -68 -6 -19 -12 -46 -14 -60 -10 -71 -35 -202 -41
-211 -24 -40 -45 -208 -50 -392 -1 -79 -7 -144 -13 -151 -6 -7 -13 -77 -15
-162 -3 -82 -10 -162 -16 -179 -20 -49 -21 -429 -2 -485 8 -25 19 -49 23 -54
16 -18 47 25 52 72 3 26 12 101 21 167 11 81 16 192 16 345 -1 255 -2 229 9
415 4 77 13 158 19 180 6 22 16 74 23 115 6 41 17 96 25 122 8 26 14 55 14 66
0 11 7 35 15 55 8 19 14 59 14 88 0 106 8 174 24 206 10 18 17 48 17 67 0 19
4 45 9 58 5 13 14 57 21 98 6 41 16 89 21 105 6 17 17 75 25 129 16 115 31
141 65 110 27 -24 52 -73 88 -172 27 -73 54 -124 128 -238 18 -29 38 -65 44
-80 17 -46 86 -178 130 -251 23 -37 48 -85 56 -108 16 -47 110 -239 134 -275
18 -27 46 -76 92 -160 16 -30 36 -62 43 -71 8 -8 14 -20 14 -25 0 -14 117
-193 154 -235 17 -20 54 -66 81 -103 28 -38 69 -93 92 -124 23 -32 62 -87 87
-123 55 -82 103 -124 122 -109 16 14 9 34 -25 80 -15 19 -41 60 -59 90 -17 30
-62 93 -99 139 -137 168 -202 262 -314 451 -77 130 -151 266 -195 360 -81 172
-199 399 -234 450 -22 32 -40 63 -40 67 0 4 -25 50 -55 101 -30 52 -59 111
-65 133 -6 22 -27 74 -47 117 -83 179 -113 256 -106 263 5 5 38 13 73 19 68
12 592 43 989 60 252 11 345 27 339 58 -3 15 -31 17 -283 18 -211 1 -288 -2
-313 -12 -24 -10 -123 -15 -350 -20 -174 -3 -333 -10 -352 -15 -99 -25 -160 2
-160 72 0 28 8 41 48 76 27 23 64 48 83 56 19 8 61 39 95 69 34 30 116 94 183
142 68 49 135 105 149 125 15 20 70 73 123 118 53 44 116 103 140 129 24 27
58 64 76 84 43 47 73 86 111 141 17 25 54 70 82 99 28 29 58 67 67 84 9 17 26
45 39 62 13 17 40 66 60 110 20 43 50 98 66 122 16 23 40 67 53 97 14 30 38
64 55 77 28 20 57 59 116 155 11 18 36 49 55 67 19 19 57 62 84 96 28 34 67
82 87 107 21 24 69 88 107 142 38 53 87 110 108 126 48 36 93 85 93 101 0 7
16 33 35 58 19 26 35 53 35 61 0 8 6 15 13 15 7 0 17 8 22 18 38 70 38 72 27
97 -16 35 -42 31 -83 -12z"/>
</g>
</svg>
